<svg width="86" height="86" viewBox="0 0 86 86" fill="none" xmlns="http://www.w3.org/2000/svg">
<path d="M60 32H51V30C51 27.243 48.757 25 46 25H40C37.243 25 35 27.243 35 30V32H26C23.243 32 21 34.243 21 37V56C21 58.757 23.243 61 26 61H60C62.757 61 65 58.757 65 56V37C65 34.243 62.757 32 60 32ZM37 30C37 28.346 38.346 27 40 27H46C47.654 27 49 28.346 49 30V32H37V30ZM63 56C63 57.654 61.654 59 60 59H26C24.346 59 23 57.654 23 56V37C23 35.346 24.346 34 26 34H60C61.654 34 63 35.346 63 37V56Z" fill="#3FA9F5"/>
<path d="M70.36 11.148C63.01 4.82801 53.455 1 43 1C19.804 1 1 19.805 1 43C1 53.455 4.82801 63.01 11.148 70.36" stroke="#70CF29" stroke-miterlimit="10"/>
<path d="M15.373 74.6211C22.759 81.0781 32.4181 85.0001 43.0001 85.0001C66.1961 85.0001 85.0001 66.1951 85.0001 43.0001C85.0001 32.4191 81.078 22.759 74.621 15.373" stroke="#3FA9F5" stroke-miterlimit="10"/>
<path d="M35 48H33V56H35V48Z" fill="#3FA9F5"/>
<path d="M41 45H39V56H41V45Z" fill="#3FA9F5"/>
<path d="M47 42H45V56H47V42Z" fill="#3FA9F5"/>
<path d="M53 39H51V56H53V39Z" fill="#3FA9F5"/>
</svg>
