<svg aria-hidden="true" style="position: absolute; width: 0; height: 0; overflow: hidden;" version="1.1" xmlns="http://www.w3.org/2000/svg" xmlns:xlink="http://www.w3.org/1999/xlink">
<defs>
<symbol id="icon-logo" viewBox="0 0 32 32">
<path fill="#3fa9f5" style="fill: var(--second-brand-color, #3fa9f5)" d="M14.877 18.041c0.289 0.056 0.341-0.085 0.388-0.185s0.185-0.255 0.386-0.35c0.202-0.096 0.473-0.258 0.579-0.354 0.107-0.097 0.221-0.217 0.464-0.226s0.364-0.129 0.44-0.285c0.078-0.156 0.024-0.485 0.077-0.601 0.053-0.115 0.188-0.32 0.267-0.501 0.080-0.18 0.011-0.165-0.108-0.113-0.119 0.051-0.223 0.092-0.269 0.252-0.047 0.161-0.090 0.197-0.24 0.307-0.151 0.109-0.26 0.187-0.421 0.239-0.163 0.051-0.479 0.15-0.657 0.237-0.166 0.081-0.342 0.177-0.534 0.292l-1.226 1.226c0.229-0.024 0.596 0.013 0.854 0.063z"></path>
<path fill="#3fa9f5" style="fill: var(--second-brand-color, #3fa9f5)" d="M28.183 5.633c-0.059 0.048-0.103 0.092-0.112 0.124-0.031 0.111-0.048 0.594-0.161 0.801-0.111 0.207-0.148 0.605-0.15 0.679-0.003 0.074-0.012 0.204-0.087 0.326-0.073 0.121-0.223 0.298-0.168 0.388s0.269 0.251 0.156 0.367c-0.114 0.116-0.391 0.284-0.311 0.455 0.083 0.172 0.212 0.487 0.206 0.615s-0.084 0.254-0.004 0.339c0.081 0.086 0.148 0.261 0.031 0.449s-0.694 0.999-1.049 1.296c-0.353 0.297-0.68 0.631-0.781 0.823s-0.112 0.339-0.163 0.406c-0.050 0.067-0.196 0.17-0.301 0.271-0.104 0.101-0.022 0.162 0.032 0.251s0.009 0.232-0.077 0.319c-0.086 0.087-0.318 0.211-0.174 0.305s0.179 0.255 0.111 0.328c-0.068 0.073-0.217 0.271-0.227 0.344-0.011 0.073-0.344 0.075-0.503-0.033-0.158-0.108-0.418-0.28-0.362-0.334s0.205-0.132 0.338-0.299c0.135-0.167 0.118-0.404 0.194-0.431 0.079-0.026 0.099-0.171-0.036-0.264-0.136-0.093-0.185-0.186-0.053-0.341 0.133-0.155 0.286-0.454 0.057-0.584s-0.485-0.067-0.781 0.028c-0.297 0.095-0.246 0.164-0.627 0.519-0.383 0.354-0.225 0.549-0.458 0.802-0.232 0.252-0.212 0.378-0.444 0.63-0.231 0.252-0.584 0.475-0.697 0.67s0.016 0.237 0.26 0.085c0.244-0.151 0.133-0.155 0.496-0.191 0.364-0.036 0.367 0.026 0.616-0.088 0.252-0.113 0.386-0.194 0.494-0.080s0.296 0.362 0.379 0.559c0.084 0.197 0.108 0.472 0.039 0.796-0.070 0.324-0.028 0.478-0.216 0.674-0.188 0.196-0.449 0.296-0.699 0.41s-0.169 0.063-0.409 0.19c-0.24 0.128-0.289 0.034-0.401-0.129-0.114-0.164-0.456-0.1-0.61 0.027-0.152 0.127-0.673 0.685-0.848 0.784-0.174 0.1-0.652 0.244-0.81 0.407s-0.19 0.308-0.081 0.409c0.11 0.102 0.22 0.463-0.057 0.597s-0.44 0.236-0.516 0.423c-0.074 0.188-0.422 0.387-0.633 0.468-0.209 0.083-0.674 0.24-0.842 0.465-0.166 0.224-0.293 0.416-0.489 0.5-0.196 0.085-0.549 0.308-0.762 0.328s-0.383-0.275-0.85-0.191c-0.469 0.084-0.954 0.202-1.064 0.286-0.112 0.083-0.233 0.251-0.367 0.333-0.135 0.080-0.251 0.212-0.631 0.27-0.377 0.060-0.492 0.081-0.734 0.22-0.241 0.139-0.452 0.321-0.66 0.403-0.21 0.082-0.438 0.038-0.539 0.321-0.1 0.283-0.149 0.634-0.34 0.767-0.191 0.135-0.231 0.24-0.396 0.266-0.163 0.028-0.2-0.595-0.604-0.528-0.406 0.068-0.539 0.136-0.667 0.082-0.129-0.055-0.187-0.088-0.376-0.052-0.19 0.036-0.61-0.048-0.743 0.194-0.132 0.241-0.296 0.267-0.433 0.644-0.14 0.376-0.16 0.435 0.038 0.523 0.198 0.089 0.187 0.174 0.077 0.258-0.112 0.083-0.383 0.256-0.46 0.455s-0.094 0.321-0.202 0.478-0.336 0.374-0.233 0.437c0.103 0.063 0.217 0.215 0.1 0.261-0.117 0.045-0.363 0.123-0.549 0.406-0.188 0.283-0.595 0.647-0.773 0.857-0.063 0.074-0.125 0.137-0.194 0.194 2.755 2.25 6.273 3.6 10.108 3.6 8.837 0 16-7.163 16-16 0-3.956-1.439-7.574-3.817-10.367z"></path>
<path fill="#70cf29" style="fill: var(--first-brand-color, #70cf29)" d="M14.571 16.966c-0.177-0.025-0.332 0.114-0.402 0.179-0.071 0.064-0.115 0.021-0.256-0.023-0.143-0.044-0.288 0.109-0.328 0.226-0.041 0.118-0.249 0.101-0.327 0.041s-0.287 0.022-0.41 0.105c-0.123 0.082-0.233 0.202-0.362 0.333-0.129 0.13 0.153 0.256 0.247 0.355 0.089 0.094 0.233 0.048 0.32 0.011s0.266-0.086 0.38-0.129c0.113-0.042 0.292-0.033 0.504-0.078 0.023-0.005 0.058-0.005 0.086-0.008l1.226-1.226c-0.014 0.008-0.027 0.015-0.040 0.024-0.209 0.125-0.461 0.214-0.636 0.19z"></path>
<path fill="#70cf29" style="fill: var(--first-brand-color, #70cf29)" d="M3.664 25.559c0.604-0.197 1.138-0.847 1.351-1.197 0.212-0.349 0.752-1.048 1.094-1.496s1.225-1 1.967-1.244c0.741-0.243 1.575-0.557 2.002-1.025 0.426-0.468 0.396-0.604 0.676-0.73s0.647-0.272 0.734-0.426c0.086-0.152 0.091-0.662 0.521-0.801s0.415-0.144 0.453-0.324c0.037-0.18-0.215-0.314-0.35-0.333-0.133-0.018-0.516 0.077-0.462-0.051 0.055-0.128 0.312-0.464 0.642-0.615s0.724-0.419 0.822-0.591c0.098-0.171 0.371-0.455 0.7-0.607 0.331-0.152 0.785-0.411 1.008-0.503s0.787-0.324 0.907-0.394c0.121-0.070 0.572-0.205 0.594-0.449 0.020-0.244-0.173-0.271 0.050-0.548s0.356-0.347 0.554-0.702c0.196-0.355 0.255-0.422 0.534-0.568s0.968-0.57 1.055-0.571c0.086-0.001 0.286-0.010 0.443-0.26s0.351-0.223 0.506-0.264c0.153-0.040 0.381-0.441 0.575-0.502 0.193-0.060 0.263-0.297 0.287-0.466s0.114-0.552 0.305-0.6c0.191-0.048 0.319-0.351 0.367-0.517 0.047-0.167 0.109-0.615 0.341-0.681 0.231-0.068 0.151-0.029 0.286-0.196 0.133-0.167 0.247-0.448 0.455-0.616 0.21-0.168 0.308-0.254 0.365-0.493 0.059-0.239 0.22-0.97 0.525-1.384s0.606-0.632 0.943-0.92c0.336-0.287 0.345-0.632 0.536-0.84s0.059-0.338 0.177-0.47c0.115-0.132 0.131-0.241 0.153-0.312s-0.081-0.209 0.063-0.362c0.144-0.153 0.267-0.148 0.397-0.278 0.087-0.087 0.068-0.161 0.068-0.233-2.622-1.88-5.832-2.99-9.305-2.99-8.837 0-16 7.163-16 16 0 3.656 1.229 7.023 3.292 9.717 0.12-0.060 0.245-0.117 0.373-0.158z"></path>
</symbol>
<symbol id="icon-studio-logo" viewBox="0 0 77 32">
<path d="M67.878 31.907h1.446v-4.829l4.429 4.327c0.119 0.093 0.244 0.185 0.368 0.272 0.103 0.070 0.205 0.132 0.311 0.189 0.092 0.042 0.191 0.086 0.292 0.103 0.105 0.022 0.211 0.032 0.316 0.032 0.215 0 0.432-0.036 0.634-0.132 0.179-0.087 0.335-0.209 0.465-0.362 0.134-0.159 0.227-0.343 0.294-0.537 0.067-0.215 0.1-0.441 0.1-0.66v-4.535h-1.449v4.816l-4.438-4.367c-0.345-0.337-0.767-0.593-1.264-0.593-0.193 0-0.381 0.042-0.56 0.119-0.173 0.079-0.337 0.185-0.486 0.314-0.135 0.129-0.25 0.285-0.333 0.455-0.086 0.173-0.128 0.356-0.128 0.547v4.841h0.001zM46.182 21.6h5.075v-9.103l16.743 8.378c1.807 0.897 4.543 1.111 6.301 0 1.719-1.082 2.233-2.957 2.233-4.886v-15.807h-59.284c-1.001 0-1.984 0.153-2.935 0.449-0.929 0.292-1.795 0.721-2.572 1.309-0.756 0.569-1.367 1.267-1.836 2.079-0.492 0.851-0.703 1.788-0.703 2.761 0 0.934 0.192 1.823 0.604 2.657 0.403 0.807 0.935 1.514 1.619 2.105 0.688 0.605 1.472 1.059 2.33 1.375 0.88 0.332 1.798 0.495 2.742 0.495h20.954v3.168h-31.776v-16.58h-5.677v21.603l35.455-0.003c0.924 0 1.823-0.167 2.692-0.492 0.839-0.319 1.62-0.772 2.303-1.363 0.668-0.579 1.201-1.271 1.6-2.064 0.417-0.822 0.602-1.708 0.602-2.623 0-0.918-0.185-1.789-0.563-2.623-0.369-0.813-0.876-1.537-1.527-2.148-0.668-0.634-1.45-1.108-2.303-1.449-0.915-0.369-1.881-0.534-2.87-0.534h-20.653v-3.233h56.695v11.673l-16.922-8.428c-3.923-1.952-8.327-1.249-8.327 3.916v9.367zM7.281 30.506h-5.785v-3.321h5.785v3.321zM0.029 31.907h6.655c0.272 0 0.535-0.045 0.794-0.141 0.244-0.092 0.471-0.223 0.668-0.396 0.193-0.17 0.346-0.372 0.463-0.605 0.116-0.239 0.17-0.497 0.17-0.762v-2.346c0-0.271-0.051-0.529-0.167-0.777-0.113-0.227-0.262-0.432-0.455-0.596-0.193-0.176-0.417-0.304-0.656-0.39-0.259-0.099-0.521-0.145-0.793-0.145h-6.679v6.159h0.001zM23.556 31.935v-1.521h-7.251v-0.842h7.251v-1.476h-7.251v-0.896h7.251v-1.469h-6.541c-0.288 0-0.58 0.042-0.854 0.134-0.25 0.089-0.48 0.212-0.682 0.384-0.198 0.17-0.352 0.378-0.46 0.611-0.119 0.259-0.164 0.54-0.164 0.823v2.291c0 0.275 0.051 0.547 0.17 0.791 0.122 0.234 0.278 0.444 0.477 0.618 0.199 0.177 0.432 0.308 0.688 0.406 0.259 0.092 0.528 0.147 0.807 0.147h6.559zM38.742 27.193v-1.392h-6.819c-0.279 0-0.563 0.042-0.835 0.131-0.262 0.080-0.512 0.202-0.733 0.369-0.212 0.161-0.388 0.359-0.522 0.593-0.138 0.241-0.199 0.506-0.199 0.787 0 0.262 0.054 0.519 0.173 0.756 0.111 0.227 0.266 0.435 0.46 0.596 0.196 0.176 0.417 0.304 0.662 0.394 0.253 0.093 0.516 0.143 0.784 0.143h5.98v0.909h-7.66v1.425h7.085c0.265 0 0.519-0.045 0.764-0.14 0.244-0.092 0.465-0.22 0.657-0.39 0.195-0.164 0.342-0.364 0.457-0.586 0.121-0.237 0.17-0.486 0.17-0.749 0-0.262-0.049-0.509-0.16-0.748-0.099-0.23-0.25-0.438-0.432-0.615-0.193-0.177-0.417-0.311-0.659-0.407-0.259-0.108-0.534-0.153-0.816-0.153h-5.898v-0.927l7.542 0.001zM46.863 25.747h-1.617v6.211h1.617v-6.211zM57.472 28.068v1.478h2.841v0.868h-5.935v-3.229h7.424v-1.437h-6.636c-0.567 0-1.187 0.096-1.654 0.448-0.403 0.308-0.579 0.729-0.579 1.229v2.524c0 0.288 0.054 0.573 0.185 0.831 0.128 0.236 0.294 0.435 0.505 0.601 0.217 0.167 0.461 0.291 0.72 0.371 0.273 0.089 0.56 0.131 0.849 0.131h4.253c0.292 0 0.579-0.035 0.867-0.113 0.268-0.071 0.516-0.185 0.748-0.346 0.215-0.156 0.394-0.352 0.525-0.588 0.14-0.253 0.196-0.538 0.196-0.831v-1.933l-4.31-0.003z"></path>
</symbol>
<symbol id="icon-envelope" viewBox="0 0 32 32">
<path d="M16 0c-8.839 0-16 7.164-16 16 0 8.839 7.161 16 16 16 8.835 0 16-7.161 16-16 0-8.836-7.165-16-16-16zM25.569 9.371l0.023 0.004-8.929 8.931c-0.299 0.297-0.823 0.297-1.121-0.003l-8.933-8.932h18.961zM5.985 9.969c0-0.007 0.004-0.011 0.004-0.011l6.068 6.065-6.072 6.072v-12.127zM6.583 22.797c-0.027 0-0.052-0.013-0.079-0.017l6.155-6.153 2.279 2.279c0.308 0.311 0.724 0.48 1.165 0.48 0.437 0 0.853-0.169 1.161-0.48l2.204-2.205 6.096 6.097h-18.981zM26.168 22.195l-6.096-6.096 6.096-6.096v12.192z"></path>
</symbol>
<symbol id="icon-phone" viewBox="0 0 32 32">
<path d="M16 0c-8.836 0-16 7.164-16 16s7.164 16 16 16c8.836 0 16-7.164 16-16s-7.164-16-16-16zM20.303 24.245c-2.12-0.131-6.289-2.565-8.232-4.752-1.937-2.188-3.861-6.617-3.735-8.741 0 0 2.309-3.055 3.369-2.993 1.068 0.064 4.057 3.435 2.927 4.437-1.12 0.996-2.183 0.935-2.245 1.992-0.060 1.060 0.935 2.188 1.927 3.311 1.003 1.128 1.997 2.247 3.060 2.307 1.060 0.067 1.125-0.991 2.245-1.993 1.125-0.997 4.12 2.379 4.055 3.439-0.059 1.056-3.371 2.995-3.371 2.995z"></path>
</symbol>
<symbol id="icon-arrow" viewBox="0 0 25 32">
<path stroke-linejoin="miter" stroke-linecap="butt" stroke-miterlimit="10" stroke-width="1.6842" d="M12.631 0v29.642"></path>
<path stroke-linejoin="miter" stroke-linecap="butt" stroke-miterlimit="10" stroke-width="1.6842" d="M1.684 19.537l10.948 10.779 10.946-10.779"></path>
</symbol>
<symbol id="icon-direction-1" viewBox="0 0 32 32">
<path fill="none" stroke="#70cf29" style="stroke: var(--first-brand-color, #70cf29)" stroke-linejoin="miter" stroke-linecap="butt" stroke-miterlimit="10" stroke-width="0.3721" d="M26.18 4.148c-2.735-2.351-6.29-3.776-10.18-3.776-8.631 0-15.628 6.997-15.628 15.628 0 3.89 1.424 7.445 3.776 10.18"></path>
<path fill="none" stroke="#3fa9f5" style="stroke: var(--second-brand-color, #3fa9f5)" stroke-linejoin="miter" stroke-linecap="butt" stroke-miterlimit="10" stroke-width="0.3721" d="M5.72 27.766c2.748 2.403 6.342 3.862 10.28 3.862 8.631 0 15.628-6.997 15.628-15.628 0-3.937-1.459-7.532-3.862-10.279"></path>
<path fill="#3fa9f5" style="fill: var(--second-brand-color, #3fa9f5)" d="M19.328 14.945c1.828 0 3.314-1.487 3.314-3.314s-1.487-3.315-3.314-3.315c-1.828 0-3.315 1.487-3.315 3.315s1.487 3.314 3.315 3.314zM19.328 9.060c1.417 0 2.57 1.153 2.57 2.57s-1.153 2.57-2.57 2.57c-1.418 0-2.571-1.153-2.571-2.57s1.154-2.57 2.571-2.57z"></path>
<path fill="#3fa9f5" style="fill: var(--second-brand-color, #3fa9f5)" d="M19.349 16.285c-3.126 0-5.582 2.543-5.582 5.668v0.372h11.163v-0.372c0-3.126-2.455-5.668-5.581-5.668zM14.418 21.581c0.191-2.543 2.32-4.552 4.911-4.552s4.72 2.010 4.91 4.552h-9.821z"></path>
<path fill="#3fa9f5" style="fill: var(--second-brand-color, #3fa9f5)" d="M11.276 16.41c1.493 0 2.708-1.215 2.708-2.708s-1.215-2.708-2.708-2.708c-1.494 0-2.709 1.215-2.709 2.708s1.215 2.708 2.709 2.708zM11.276 11.738c1.083 0 1.964 0.881 1.964 1.964s-0.881 1.964-1.964 1.964c-1.084 0-1.965-0.881-1.965-1.964s0.881-1.964 1.965-1.964z"></path>
<path fill="#3fa9f5" style="fill: var(--second-brand-color, #3fa9f5)" d="M6.698 21.954v0.372h5.581v-0.744h-4.821c0.178-2.006 1.78-3.528 3.795-3.528 0.761 0 1.39 0.153 1.923 0.467l0.378-0.641c-0.65-0.384-1.403-0.57-2.301-0.57-2.555 0-4.556 2.040-4.556 4.644z"></path>
</symbol>
<symbol id="icon-direction-2" viewBox="0 0 32 32">
<path fill="none" stroke="#70cf29" style="stroke: var(--first-brand-color, #70cf29)" stroke-linejoin="miter" stroke-linecap="butt" stroke-miterlimit="10" stroke-width="0.3721" d="M26.18 4.148c-2.735-2.351-6.29-3.776-10.18-3.776-8.631 0-15.628 6.997-15.628 15.628 0 3.89 1.424 7.445 3.776 10.18"></path>
<path fill="none" stroke="#3fa9f5" style="stroke: var(--second-brand-color, #3fa9f5)" stroke-linejoin="miter" stroke-linecap="butt" stroke-miterlimit="10" stroke-width="0.3721" d="M5.72 27.766c2.748 2.403 6.342 3.862 10.28 3.862 8.631 0 15.628-6.997 15.628-15.628 0-3.937-1.459-7.532-3.862-10.279"></path>
<path fill="#3fa9f5" style="fill: var(--second-brand-color, #3fa9f5)" d="M16.372 14.14h4.458l3.261-2.893-3.268-2.688h-4.45v-1.116h-0.744v1.116h-6.326v5.581h6.326v1.86h-3.773l-3.261 2.886 3.268 2.696h3.766v2.605h-3.721v0.744h8.558v-0.744h-4.093v-2.605h6.698v-5.581h-6.698v-1.86zM10.047 9.302h10.509l2.39 1.965-2.398 2.128h-10.501v-4.093zM22.326 16.744v4.093h-10.196l-2.39-1.972 2.397-2.121h10.189z"></path>
</symbol>
<symbol id="icon-direction-3" viewBox="0 0 32 32">
<path fill="none" stroke="#70cf29" style="stroke: var(--first-brand-color, #70cf29)" stroke-linejoin="miter" stroke-linecap="butt" stroke-miterlimit="10" stroke-width="0.3721" d="M26.18 4.148c-2.735-2.351-6.29-3.776-10.18-3.776-8.631 0-15.628 6.997-15.628 15.628 0 3.89 1.424 7.445 3.776 10.18"></path>
<path fill="none" stroke="#3fa9f5" style="stroke: var(--second-brand-color, #3fa9f5)" stroke-linejoin="miter" stroke-linecap="butt" stroke-miterlimit="10" stroke-width="0.3721" d="M5.72 27.766c2.748 2.403 6.342 3.862 10.28 3.862 8.631 0 15.628-6.997 15.628-15.628 0-3.937-1.459-7.532-3.862-10.279"></path>
<path fill="#3fa9f5" style="fill: var(--second-brand-color, #3fa9f5)" d="M23.245 8.93h-14.118c-0.898 0-1.685 0.859-1.685 1.838v9.193c0 0.908 0.74 1.62 1.685 1.62h0.919v3.826l4.151-3.826h9.047c0.945 0 1.685-0.711 1.685-1.62v-9.193c0-0.979-0.787-1.838-1.685-1.838zM24.186 19.962c0 0.499-0.404 0.876-0.941 0.876h-9.338l-3.116 2.872v-2.872h-1.664c-0.537 0-0.941-0.377-0.941-0.876v-9.193c0-0.552 0.466-1.094 0.941-1.094h14.118c0.475 0 0.941 0.542 0.941 1.094v9.193h0z"></path>
<path fill="#3fa9f5" style="fill: var(--second-brand-color, #3fa9f5)" d="M15.963 11.303c-2.229 0-4.043 1.807-4.043 4.029s1.814 4.029 4.043 4.029c2.229 0 4.042-1.807 4.042-4.029s-1.813-4.029-4.042-4.029zM19.227 14.884h-1.545c-0.045-0.991-0.237-1.951-0.568-2.627 1.116 0.416 1.946 1.416 2.113 2.627zM15.963 18.561c-0.314 0-0.911-1.034-0.979-2.933h1.957c-0.068 1.9-0.665 2.933-0.978 2.933zM14.988 14.884c0.086-1.835 0.667-2.831 0.975-2.831s0.889 0.996 0.974 2.831h-1.949zM14.813 12.257c-0.331 0.675-0.523 1.635-0.569 2.627h-1.545c0.166-1.21 0.997-2.211 2.114-2.627zM12.679 15.628h1.561c0.038 1.059 0.243 2.089 0.605 2.79-1.18-0.426-2.049-1.5-2.166-2.79zM17.080 18.418c0.362-0.7 0.567-1.731 0.605-2.79h1.561c-0.116 1.29-0.985 2.365-2.166 2.79z"></path>
</symbol>
<symbol id="icon-direction-4" viewBox="0 0 32 32">
<path fill="none" stroke="#70cf29" style="stroke: var(--first-brand-color, #70cf29)" stroke-linejoin="miter" stroke-linecap="butt" stroke-miterlimit="10" stroke-width="0.3721" d="M26.18 4.148c-2.735-2.351-6.29-3.776-10.18-3.776-8.631 0-15.628 6.997-15.628 15.628 0 3.89 1.424 7.445 3.776 10.18"></path>
<path fill="none" stroke="#3fa9f5" style="stroke: var(--second-brand-color, #3fa9f5)" stroke-linejoin="miter" stroke-linecap="butt" stroke-miterlimit="10" stroke-width="0.3721" d="M5.72 27.766c2.748 2.403 6.342 3.862 10.28 3.862 8.631 0 15.628-6.997 15.628-15.628 0-3.937-1.459-7.532-3.862-10.279"></path>
<path fill="#3fa9f5" style="fill: var(--second-brand-color, #3fa9f5)" d="M24.34 15.256l-1.86-1.86h-1.116l-1.86-1.86h-6.108v-4.093h-2.233v4.093h-2.233v1.86h-1.116v1.86h-1.986l2.080 7.070h15.783l2.911-7.070h-2.262zM11.907 8.186h0.744v3.349h-0.744v-3.349zM9.674 12.279h9.52l1.116 1.116h-10.637v-1.116zM8.558 14.14h13.613l1.116 1.116h-14.73v-1.116zM23.193 21.581h-14.728l-1.641-5.581h18.668l-2.298 5.581z"></path>
<path fill="#3fa9f5" style="fill: var(--second-brand-color, #3fa9f5)" d="M11.163 17.302c-0.821 0-1.488 0.668-1.488 1.488s0.668 1.488 1.488 1.488c0.821 0 1.488-0.668 1.488-1.488s-0.668-1.488-1.488-1.488zM11.163 19.535c-0.41 0-0.744-0.334-0.744-0.744s0.334-0.744 0.744-0.744c0.41 0 0.744 0.334 0.744 0.744s-0.334 0.744-0.744 0.744z"></path>
<path fill="#3fa9f5" style="fill: var(--second-brand-color, #3fa9f5)" d="M16 17.302c-0.821 0-1.488 0.668-1.488 1.488s0.668 1.488 1.488 1.488c0.821 0 1.488-0.668 1.488-1.488s-0.668-1.488-1.488-1.488zM16 19.535c-0.41 0-0.744-0.334-0.744-0.744s0.334-0.744 0.744-0.744c0.41 0 0.744 0.334 0.744 0.744s-0.334 0.744-0.744 0.744z"></path>
<path fill="#3fa9f5" style="fill: var(--second-brand-color, #3fa9f5)" d="M20.837 17.302c-0.821 0-1.488 0.668-1.488 1.488s0.668 1.488 1.488 1.488c0.821 0 1.488-0.668 1.488-1.488s-0.668-1.488-1.488-1.488zM20.837 19.535c-0.41 0-0.744-0.334-0.744-0.744s0.334-0.744 0.744-0.744c0.41 0 0.744 0.334 0.744 0.744s-0.334 0.744-0.744 0.744z"></path>
</symbol>
<symbol id="icon-direction-5" viewBox="0 0 32 32">
<path fill="none" stroke="#70cf29" style="stroke: var(--first-brand-color, #70cf29)" stroke-linejoin="miter" stroke-linecap="butt" stroke-miterlimit="10" stroke-width="0.3721" d="M26.18 4.148c-2.735-2.352-6.29-3.776-10.18-3.776-8.631 0-15.628 6.997-15.628 15.628 0 3.89 1.424 7.446 3.776 10.18"></path>
<path fill="none" stroke="#3fa9f5" style="stroke: var(--second-brand-color, #3fa9f5)" stroke-linejoin="miter" stroke-linecap="butt" stroke-miterlimit="10" stroke-width="0.3721" d="M5.72 27.766c2.748 2.403 6.342 3.862 10.28 3.862 8.631 0 15.628-6.997 15.628-15.628 0-3.937-1.459-7.532-3.862-10.28"></path>
<path fill="#3fa9f5" style="fill: var(--second-brand-color, #3fa9f5)" d="M19.642 16.098c0.395 0.303 0.843 0.646 1.567 0.646 0.642 0 1.088-0.329 1.483-0.618 0.364-0.267 0.678-0.498 1.122-0.498 0.434 0 0.733 0.224 1.079 0.484 0.396 0.297 0.844 0.633 1.526 0.633v-0.744c-0.434 0-0.733-0.224-1.079-0.484-0.396-0.297-0.844-0.633-1.526-0.633-0.688 0-1.153 0.341-1.562 0.643-0.346 0.254-0.645 0.474-1.042 0.474-0.471 0-0.769-0.228-1.114-0.493-0.306-0.234-0.647-0.491-1.118-0.585v-2.309c0.848-0.173 1.488-0.924 1.488-1.822 0-1.026-0.835-1.86-1.86-1.86s-1.86 0.835-1.86 1.86c0 0.898 0.64 1.65 1.488 1.822v2.309c-0.481 0.094-0.835 0.355-1.154 0.594-0.346 0.259-0.645 0.484-1.079 0.484s-0.733-0.224-1.079-0.484c-0.396-0.297-0.844-0.633-1.526-0.633s-1.131 0.336-1.526 0.633c-0.346 0.259-0.646 0.484-1.079 0.484-0.437 0-0.741-0.226-1.092-0.488-0.396-0.295-0.845-0.628-1.516-0.628-0.696 0-1.149 0.34-1.544 0.64-0.337 0.255-0.684 0.476-1.056 0.476v0.744c0.744 0 1.119-0.333 1.506-0.628 0.346-0.262 0.653-0.489 1.098-0.489 0.424 0 0.723 0.223 1.069 0.481 0.399 0.298 0.852 0.635 1.535 0.635 0.682 0 1.13-0.336 1.526-0.633 0.346-0.259 0.645-0.484 1.079-0.484s0.733 0.224 1.079 0.484c0.396 0.297 0.844 0.633 1.526 0.633s1.13-0.336 1.526-0.633c0.237-0.178 0.455-0.333 0.707-0.418v1.833c-0.481 0.094-0.835 0.355-1.154 0.594-0.346 0.259-0.645 0.484-1.079 0.484s-0.733-0.224-1.079-0.484c-0.396-0.297-0.844-0.633-1.526-0.633s-1.131 0.336-1.526 0.633c-0.346 0.259-0.646 0.484-1.079 0.484-0.437 0-0.741-0.226-1.092-0.488-0.396-0.295-0.845-0.628-1.516-0.628-0.696 0-1.149 0.34-1.544 0.64-0.337 0.255-0.684 0.476-1.056 0.476v0.744c0.744 0 1.119-0.333 1.506-0.628 0.346-0.262 0.653-0.489 1.098-0.489 0.424 0 0.723 0.223 1.069 0.481 0.399 0.298 0.852 0.635 1.535 0.635 0.682 0 1.13-0.336 1.526-0.633 0.346-0.259 0.645-0.484 1.079-0.484s0.733 0.224 1.079 0.484c0.396 0.297 0.844 0.633 1.526 0.633s1.13-0.336 1.526-0.633c0.237-0.178 0.455-0.333 0.707-0.418v4.771c0 1.436-1.168 2.605-2.605 2.605s-2.605-1.169-2.605-2.605v-0.962l1.597 1.597 0.526-0.526-2.868-2.868v2.759c0 1.847 1.502 3.349 3.349 3.349s3.349-1.502 3.349-3.349v-4.77c0.234 0.080 0.435 0.226 0.666 0.403 0.395 0.303 0.843 0.646 1.567 0.646 0.642 0 1.088-0.329 1.483-0.618 0.364-0.267 0.678-0.498 1.122-0.498 0.434 0 0.733 0.224 1.079 0.484 0.396 0.297 0.844 0.633 1.526 0.633v-0.744c-0.434 0-0.733-0.224-1.079-0.484-0.396-0.297-0.844-0.633-1.526-0.633-0.688 0-1.153 0.341-1.562 0.643-0.346 0.254-0.645 0.474-1.042 0.474-0.471 0-0.769-0.228-1.114-0.493-0.306-0.234-0.647-0.491-1.118-0.585v-1.832c0.234 0.080 0.435 0.226 0.666 0.403zM17.488 10.791c0-0.615 0.501-1.116 1.116-1.116s1.116 0.501 1.116 1.116c0 0.615-0.501 1.116-1.116 1.116s-1.116-0.501-1.116-1.116z"></path>
<path fill="#3fa9f5" style="fill: var(--second-brand-color, #3fa9f5)" d="M18.977 5.954h-0.744v2.977h0.744v-2.977z"></path>
</symbol>
<symbol id="icon-direction-6" viewBox="0 0 32 32">
<path fill="none" stroke="#70cf29" style="stroke: var(--first-brand-color, #70cf29)" stroke-linejoin="miter" stroke-linecap="butt" stroke-miterlimit="10" stroke-width="0.3721" d="M26.18 4.148c-2.735-2.352-6.29-3.776-10.18-3.776-8.631 0-15.628 6.997-15.628 15.628 0 3.89 1.424 7.446 3.776 10.18"></path>
<path fill="none" stroke="#3fa9f5" style="stroke: var(--second-brand-color, #3fa9f5)" stroke-linejoin="miter" stroke-linecap="butt" stroke-miterlimit="10" stroke-width="0.3721" d="M5.72 27.766c2.748 2.403 6.342 3.862 10.28 3.862 8.631 0 15.628-6.997 15.628-15.628 0-3.937-1.459-7.532-3.862-10.28"></path>
<path fill="#3fa9f5" style="fill: var(--second-brand-color, #3fa9f5)" d="M23.814 10.046c0-1.436-1.168-2.605-2.605-2.605h-10.791c-1.436 0-2.605 1.169-2.605 2.605v12.651h2.233v1.488h0.744v-1.488h10.046v1.488h0.744v-1.488h2.233v-12.651zM18.013 16.372c-0.178-1.054-1.095-1.86-2.199-1.86s-2.021 0.806-2.199 1.86h-5.057v-5.954h14.512v5.954h-5.057zM17.25 16.372h-2.871c0.166-0.64 0.744-1.116 1.436-1.116s1.269 0.476 1.436 1.116zM10.419 8.186h10.791c0.899 0 1.65 0.64 1.823 1.488h-14.436c0.173-0.848 0.924-1.488 1.823-1.488zM8.558 21.953v-4.837h14.512v4.837h-14.512z"></path>
<path fill="#3fa9f5" style="fill: var(--second-brand-color, #3fa9f5)" d="M11.349 17.86c-0.923 0-1.674 0.751-1.674 1.674s0.751 1.674 1.674 1.674c0.923 0 1.674-0.751 1.674-1.674s-0.751-1.674-1.674-1.674zM11.349 20.465c-0.513 0-0.93-0.417-0.93-0.93s0.418-0.93 0.93-0.93c0.513 0 0.93 0.417 0.93 0.93s-0.418 0.93-0.93 0.93z"></path>
<path fill="#3fa9f5" style="fill: var(--second-brand-color, #3fa9f5)" d="M20.279 17.86c-0.923 0-1.674 0.751-1.674 1.674s0.751 1.674 1.674 1.674c0.923 0 1.674-0.751 1.674-1.674s-0.751-1.674-1.674-1.674zM20.279 20.465c-0.513 0-0.93-0.417-0.93-0.93s0.418-0.93 0.93-0.93c0.513 0 0.93 0.417 0.93 0.93s-0.418 0.93-0.93 0.93z"></path>
</symbol>
<symbol id="icon-direction-7" viewBox="0 0 32 32">
<path fill="#3fa9f5" style="fill: var(--second-brand-color, #3fa9f5)" d="M22.326 11.907h-3.349v-0.744c0-1.026-0.835-1.86-1.86-1.86h-2.233c-1.026 0-1.86 0.835-1.86 1.86v0.744h-3.349c-1.026 0-1.86 0.835-1.86 1.86v7.070c0 1.026 0.835 1.86 1.86 1.86h12.651c1.026 0 1.86-0.835 1.86-1.86v-7.070c0-1.026-0.835-1.86-1.86-1.86zM13.767 11.163c0-0.615 0.501-1.116 1.116-1.116h2.233c0.615 0 1.116 0.501 1.116 1.116v0.744h-4.465v-0.744zM23.442 20.837c0 0.615-0.501 1.116-1.116 1.116h-12.651c-0.615 0-1.116-0.501-1.116-1.116v-7.070c0-0.615 0.501-1.116 1.116-1.116h12.651c0.615 0 1.116 0.501 1.116 1.116v7.070z"></path>
<path fill="none" stroke="#70cf29" style="stroke: var(--first-brand-color, #70cf29)" stroke-linejoin="miter" stroke-linecap="butt" stroke-miterlimit="10" stroke-width="0.3721" d="M26.18 4.148c-2.735-2.352-6.29-3.776-10.18-3.776-8.631 0-15.628 6.997-15.628 15.628 0 3.89 1.424 7.446 3.776 10.18"></path>
<path fill="none" stroke="#3fa9f5" style="stroke: var(--second-brand-color, #3fa9f5)" stroke-linejoin="miter" stroke-linecap="butt" stroke-miterlimit="10" stroke-width="0.3721" d="M5.72 27.766c2.748 2.403 6.342 3.862 10.28 3.862 8.631 0 15.628-6.997 15.628-15.628 0-3.937-1.459-7.532-3.862-10.28"></path>
<path fill="#3fa9f5" style="fill: var(--second-brand-color, #3fa9f5)" d="M13.023 17.86h-0.744v2.977h0.744v-2.977z"></path>
<path fill="#3fa9f5" style="fill: var(--second-brand-color, #3fa9f5)" d="M15.256 16.744h-0.744v4.093h0.744v-4.093z"></path>
<path fill="#3fa9f5" style="fill: var(--second-brand-color, #3fa9f5)" d="M17.488 15.628h-0.744v5.209h0.744v-5.209z"></path>
<path fill="#3fa9f5" style="fill: var(--second-brand-color, #3fa9f5)" d="M19.721 14.512h-0.744v6.326h0.744v-6.326z"></path>
</symbol>
<symbol id="icon-direction-8" viewBox="0 0 32 32">
<path fill="none" stroke="#70cf29" style="stroke: var(--first-brand-color, #70cf29)" stroke-linejoin="miter" stroke-linecap="butt" stroke-miterlimit="10" stroke-width="0.3721" d="M26.18 4.148c-2.735-2.352-6.29-3.776-10.18-3.776-8.631 0-15.628 6.997-15.628 15.628 0 3.89 1.424 7.446 3.776 10.18"></path>
<path fill="none" stroke="#3fa9f5" style="stroke: var(--second-brand-color, #3fa9f5)" stroke-linejoin="miter" stroke-linecap="butt" stroke-miterlimit="10" stroke-width="0.3721" d="M5.72 27.766c2.748 2.403 6.342 3.862 10.28 3.862 8.631 0 15.628-6.997 15.628-15.628 0-3.937-1.459-7.532-3.862-10.28"></path>
<path fill="#3fa9f5" style="fill: var(--second-brand-color, #3fa9f5)" d="M14.838 14.54c1.901 0 3.448-1.546 3.448-3.447s-1.546-3.447-3.448-3.447c-1.901 0-3.448 1.546-3.448 3.447s1.547 3.447 3.448 3.447zM14.838 8.39c1.491 0 2.704 1.213 2.704 2.703s-1.213 2.703-2.704 2.703-2.704-1.213-2.704-2.703c0-1.49 1.213-2.703 2.704-2.703z"></path>
<path fill="#3fa9f5" style="fill: var(--second-brand-color, #3fa9f5)" d="M16 21.581h-6.314c0.179-2.765 2.347-4.879 5.082-4.879 1.011 0 1.822 0.201 2.551 0.631l0.378-0.641c-0.849-0.501-1.779-0.734-2.929-0.734-3.274 0-5.838 2.634-5.838 5.996v0.372h7.070v-0.744z"></path>
<path fill="#3fa9f5" style="fill: var(--second-brand-color, #3fa9f5)" d="M25.201 24.565l-2.151-2.63c0.248-0.434 0.391-0.935 0.391-1.469 0-1.641-1.335-2.977-2.977-2.977s-2.977 1.335-2.977 2.977c0 0.535 0.144 1.036 0.391 1.469l-2.151 2.63c-0.092 0.112-0.11 0.267-0.047 0.397s0.184 0.211 0.34 0.21l1.458-0.021 0.518 1.353c0.052 0.136 0.179 0.229 0.324 0.238 0.008 0 0.015 0.001 0.023 0.001 0.137 0 0.264-0.076 0.329-0.197l1.654-3.11c0.045 0.002 0.090 0.007 0.137 0.007s0.091-0.005 0.137-0.007l1.654 3.11c0.065 0.122 0.192 0.197 0.329 0.197 0.008 0 0.015-0 0.023-0.001 0.145-0.009 0.272-0.102 0.324-0.238l0.518-1.353 1.458 0.021c0.158 0.003 0.278-0.080 0.34-0.21s0.044-0.285-0.048-0.397zM18.401 25.475l-0.319-0.832c-0.056-0.146-0.18-0.247-0.353-0.239l-0.918 0.013 1.53-1.87c0.334 0.342 0.751 0.603 1.217 0.753l-1.157 2.175zM18.233 20.465c0-1.231 1.001-2.233 2.233-2.233s2.233 1.001 2.233 2.233c0 1.231-1.001 2.233-2.233 2.233s-2.233-1.001-2.233-2.233zM23.201 24.403c-0.152-0.006-0.297 0.093-0.353 0.239l-0.319 0.832-1.156-2.175c0.466-0.15 0.882-0.411 1.217-0.753l1.53 1.87-0.919-0.013z"></path>
</symbol>
<symbol id="icon-list-manager-btn" viewBox="0 0 21 32">
<path stroke-linejoin="miter" stroke-linecap="butt" stroke-miterlimit="10" stroke-width="4.5714" d="M2.789 2.286l13.714 13.71-13.714 13.719"></path>
</symbol>
<symbol id="icon-check" viewBox="0 0 42 32">
<path style="fill: var(--color2); stroke: var(--color2)" stroke-linejoin="miter" stroke-linecap="butt" stroke-miterlimit="4" stroke-width="0.64" d="M6.262 15.206l-0.221-0.211-0.221 0.208-3.085 2.925 0.243 0.234 11.408 10.88 0.221-0.211 24.256-23.139-0.243-0.23-3.043-2.902-0.221 0.211-20.97 19.987-8.125-7.75z"></path>
</symbol>
</defs>
</svg>
