<!-- Generated by IcoMoon.io -->
<svg version="1.1" xmlns="http://www.w3.org/2000/svg" width="77" height="32" viewBox="0 0 77 32">
<title>studio-logo</title>
<path fill="#fff" opacity="0.5" d="M67.878 31.907h1.446v-4.829l4.429 4.327c0.119 0.093 0.244 0.185 0.368 0.272 0.103 0.070 0.205 0.132 0.311 0.189 0.092 0.042 0.191 0.086 0.292 0.103 0.105 0.022 0.211 0.032 0.316 0.032 0.215 0 0.432-0.036 0.634-0.132 0.179-0.087 0.335-0.209 0.465-0.362 0.134-0.159 0.227-0.343 0.294-0.537 0.067-0.215 0.1-0.441 0.1-0.66v-4.535h-1.449v4.816l-4.438-4.367c-0.345-0.337-0.767-0.593-1.264-0.593-0.193 0-0.381 0.042-0.56 0.119-0.173 0.079-0.337 0.185-0.486 0.314-0.135 0.129-0.25 0.285-0.333 0.455-0.086 0.173-0.128 0.356-0.128 0.547v4.841h0.001zM46.182 21.6h5.075v-9.103l16.743 8.378c1.807 0.897 4.543 1.111 6.301 0 1.719-1.082 2.233-2.957 2.233-4.886v-15.807h-59.284c-1.001 0-1.984 0.153-2.935 0.449-0.929 0.292-1.795 0.721-2.572 1.309-0.756 0.569-1.367 1.267-1.836 2.079-0.492 0.851-0.703 1.788-0.703 2.761 0 0.934 0.192 1.823 0.604 2.657 0.403 0.807 0.935 1.514 1.619 2.105 0.688 0.605 1.472 1.059 2.33 1.375 0.88 0.332 1.798 0.495 2.742 0.495h20.954v3.168h-31.776v-16.58h-5.677v21.603l35.455-0.003c0.924 0 1.823-0.167 2.692-0.492 0.839-0.319 1.62-0.772 2.303-1.363 0.668-0.579 1.201-1.271 1.6-2.064 0.417-0.822 0.602-1.708 0.602-2.623 0-0.918-0.185-1.789-0.563-2.623-0.369-0.813-0.876-1.537-1.527-2.148-0.668-0.634-1.45-1.108-2.303-1.449-0.915-0.369-1.881-0.534-2.87-0.534h-20.653v-3.233h56.695v11.673l-16.922-8.428c-3.923-1.952-8.327-1.249-8.327 3.916v9.367zM7.281 30.506h-5.785v-3.321h5.785v3.321zM0.029 31.907h6.655c0.272 0 0.535-0.045 0.794-0.141 0.244-0.092 0.471-0.223 0.668-0.396 0.193-0.17 0.346-0.372 0.463-0.605 0.116-0.239 0.17-0.497 0.17-0.762v-2.346c0-0.271-0.051-0.529-0.167-0.777-0.113-0.227-0.262-0.432-0.455-0.596-0.193-0.176-0.417-0.304-0.656-0.39-0.259-0.099-0.521-0.145-0.793-0.145h-6.679v6.159h0.001zM23.556 31.935v-1.521h-7.251v-0.842h7.251v-1.476h-7.251v-0.896h7.251v-1.469h-6.541c-0.288 0-0.58 0.042-0.854 0.134-0.25 0.089-0.48 0.212-0.682 0.384-0.198 0.17-0.352 0.378-0.46 0.611-0.119 0.259-0.164 0.54-0.164 0.823v2.291c0 0.275 0.051 0.547 0.17 0.791 0.122 0.234 0.278 0.444 0.477 0.618 0.199 0.177 0.432 0.308 0.688 0.406 0.259 0.092 0.528 0.147 0.807 0.147h6.559zM38.742 27.193v-1.392h-6.819c-0.279 0-0.563 0.042-0.835 0.131-0.262 0.080-0.512 0.202-0.733 0.369-0.212 0.161-0.388 0.359-0.522 0.593-0.138 0.241-0.199 0.506-0.199 0.787 0 0.262 0.054 0.519 0.173 0.756 0.111 0.227 0.266 0.435 0.46 0.596 0.196 0.176 0.417 0.304 0.662 0.394 0.253 0.093 0.516 0.143 0.784 0.143h5.98v0.909h-7.66v1.425h7.085c0.265 0 0.519-0.045 0.764-0.14 0.244-0.092 0.465-0.22 0.657-0.39 0.195-0.164 0.342-0.364 0.457-0.586 0.121-0.237 0.17-0.486 0.17-0.749 0-0.262-0.049-0.509-0.16-0.748-0.099-0.23-0.25-0.438-0.432-0.615-0.193-0.177-0.417-0.311-0.659-0.407-0.259-0.108-0.534-0.153-0.816-0.153h-5.898v-0.927l7.542 0.001zM46.863 25.747h-1.617v6.211h1.617v-6.211zM57.472 28.068v1.478h2.841v0.868h-5.935v-3.229h7.424v-1.437h-6.636c-0.567 0-1.187 0.096-1.654 0.448-0.403 0.308-0.579 0.729-0.579 1.229v2.524c0 0.288 0.054 0.573 0.185 0.831 0.128 0.236 0.294 0.435 0.505 0.601 0.217 0.167 0.461 0.291 0.72 0.371 0.273 0.089 0.56 0.131 0.849 0.131h4.253c0.292 0 0.579-0.035 0.867-0.113 0.268-0.071 0.516-0.185 0.748-0.346 0.215-0.156 0.394-0.352 0.525-0.588 0.14-0.253 0.196-0.538 0.196-0.831v-1.933l-4.31-0.003z"></path>
</svg>
